<svg width="39" height="39" viewBox="0 0 39 39" fill="none" xmlns="http://www.w3.org/2000/svg">
<path d="M25.6021 23.1643H24.3183L23.8633 22.7256C25.4558 20.8731 26.4146 18.4681 26.4146 15.8518C26.4146 10.0181 21.6858 5.28931 15.8521 5.28931C10.0183 5.28931 5.28955 10.0181 5.28955 15.8518C5.28955 21.6856 10.0183 26.4143 15.8521 26.4143C18.4683 26.4143 20.8733 25.4556 22.7258 23.8631L23.1646 24.3181V25.6018L31.2896 33.7106L33.7108 31.2893L25.6021 23.1643ZM15.8521 23.1643C11.8058 23.1643 8.53955 19.8981 8.53955 15.8518C8.53955 11.8056 11.8058 8.53931 15.8521 8.53931C19.8983 8.53931 23.1646 11.8056 23.1646 15.8518C23.1646 19.8981 19.8983 23.1643 15.8521 23.1643Z" fill="white"/>
</svg>
