<svg width="39" height="39" viewBox="0 0 39 39" fill="none" xmlns="http://www.w3.org/2000/svg">
<path d="M31.1026 21.0274C31.1676 20.5399 31.2001 20.0362 31.2001 19.4999C31.2001 18.9799 31.1676 18.4599 31.0863 17.9724L34.3851 15.4049C34.6776 15.1774 34.7588 14.7387 34.5801 14.4137L31.4601 9.01865C31.2651 8.66115 30.8588 8.5474 30.5013 8.66115L26.6176 10.2212C25.8051 9.60365 24.9438 9.08365 23.9851 8.69365L23.4001 4.56615C23.3351 4.17615 23.0101 3.8999 22.6201 3.8999H16.3801C15.9901 3.8999 15.6813 4.17615 15.6163 4.56615L15.0313 8.69365C14.0726 9.08365 13.1951 9.6199 12.3988 10.2212L8.51506 8.66115C8.15756 8.53115 7.75131 8.66115 7.55631 9.01865L4.45256 14.4137C4.25756 14.7549 4.32256 15.1774 4.64756 15.4049L7.94631 17.9724C7.86506 18.4599 7.80006 18.9962 7.80006 19.4999C7.80006 20.0037 7.83256 20.5399 7.91381 21.0274L4.61506 23.5949C4.32256 23.8224 4.24131 24.2612 4.42006 24.5862L7.54006 29.9812C7.73506 30.3387 8.14131 30.4524 8.49881 30.3387L12.3826 28.7787C13.1951 29.3962 14.0563 29.9162 15.0151 30.3062L15.6001 34.4337C15.6813 34.8237 15.9901 35.0999 16.3801 35.0999H22.6201C23.0101 35.0999 23.3351 34.8237 23.3838 34.4337L23.9688 30.3062C24.9276 29.9162 25.8051 29.3962 26.6013 28.7787L30.4851 30.3387C30.8426 30.4687 31.2488 30.3387 31.4438 29.9812L34.5638 24.5862C34.7588 24.2287 34.6776 23.8224 34.3688 23.5949L31.1026 21.0274ZM19.5001 25.3499C16.2826 25.3499 13.6501 22.7174 13.6501 19.4999C13.6501 16.2824 16.2826 13.6499 19.5001 13.6499C22.7176 13.6499 25.3501 16.2824 25.3501 19.4999C25.3501 22.7174 22.7176 25.3499 19.5001 25.3499Z" fill="white"/>
</svg>
